<?xml version="1.0" encoding="UTF-8"?>
<svg version="1.1" xmlns="http://www.w3.org/2000/svg" width="192" height="192">
<path d="M0 0 C63.36 0 126.72 0 192 0 C192 63.36 192 126.72 192 192 C128.64 192 65.28 192 0 192 C0 128.64 0 65.28 0 0 Z " fill="#FDFCFC" transform="translate(0,0)"/>
<path d="M0 0 C17.40697188 13.26008985 28.82358268 30.82135061 33.73828125 52.0859375 C33.91415771 52.77703613 34.09003418 53.46813477 34.27124023 54.18017578 C35.58905155 59.57915908 36.09130978 64.6596863 36.05078125 70.2109375 C36.0451416 71.0349707 36.03950195 71.85900391 36.03369141 72.70800781 C35.56486635 96.72484774 24.98835919 117.79067844 8.73828125 135.0859375 C6.609375 136.9765625 6.609375 136.9765625 4.73828125 138.0859375 C1.48828125 137.7734375 1.48828125 137.7734375 -1.26171875 137.0859375 C-0.97296875 136.0753125 -0.68421875 135.0646875 -0.38671875 134.0234375 C-0.11988281 133.07017578 -0.11988281 133.07017578 0.15234375 132.09765625 C0.71602323 130.16235672 1.35085527 128.24821545 1.98828125 126.3359375 C2.23578125 125.2634375 2.48328125 124.1909375 2.73828125 123.0859375 C2.07828125 122.0959375 1.41828125 121.1059375 0.73828125 120.0859375 C0.73828125 118.7659375 0.73828125 117.4459375 0.73828125 116.0859375 C-3.55171875 116.4159375 -7.84171875 116.7459375 -12.26171875 117.0859375 C-12.26171875 120.7159375 -12.26171875 124.3459375 -12.26171875 128.0859375 C-13.74671875 127.0959375 -13.74671875 127.0959375 -15.26171875 126.0859375 C-15.59505208 123.75260417 -15.92838542 121.41927083 -16.26171875 119.0859375 C-19.11650201 117.18274866 -20.68113183 116.6240276 -23.94921875 115.9609375 C-25.16158203 115.70957031 -25.16158203 115.70957031 -26.3984375 115.453125 C-27.01332031 115.33195313 -27.62820312 115.21078125 -28.26171875 115.0859375 C-28.26171875 115.7459375 -28.26171875 116.4059375 -28.26171875 117.0859375 C-29.09316406 117.06273437 -29.92460938 117.03953125 -30.78125 117.015625 C-31.86792969 116.99757812 -32.95460938 116.97953125 -34.07421875 116.9609375 C-35.15316406 116.93773437 -36.23210937 116.91453125 -37.34375 116.890625 C-40.45574743 116.85570033 -40.45574743 116.85570033 -43.26171875 119.0859375 C-43.59171875 118.0959375 -43.92171875 117.1059375 -44.26171875 116.0859375 C-46.21996569 115.91825886 -48.1783193 115.75182545 -50.13671875 115.5859375 C-51.22726563 115.493125 -52.3178125 115.4003125 -53.44140625 115.3046875 C-57.25242455 115.00909605 -60.4926525 115.43044772 -64.26171875 116.0859375 C-63.93171875 116.7459375 -63.60171875 117.4059375 -63.26171875 118.0859375 C-63.13671875 121.6484375 -63.13671875 121.6484375 -63.26171875 125.0859375 C-64.26171875 126.0859375 -64.26171875 126.0859375 -66.82421875 126.1484375 C-67.62859375 126.1278125 -68.43296875 126.1071875 -69.26171875 126.0859375 C-69.26171875 123.4459375 -69.26171875 120.8059375 -69.26171875 118.0859375 C-68.60171875 118.0859375 -67.94171875 118.0859375 -67.26171875 118.0859375 C-67.59171875 116.7659375 -67.92171875 115.4459375 -68.26171875 114.0859375 C-68.92171875 114.4159375 -69.58171875 114.7459375 -70.26171875 115.0859375 C-73.07421875 115.3984375 -73.07421875 115.3984375 -76.26171875 115.0859375 C-77.91171875 113.7659375 -79.56171875 112.4459375 -81.26171875 111.0859375 C-75.65171875 111.0859375 -70.04171875 111.0859375 -64.26171875 111.0859375 C-64.26171875 110.4259375 -64.26171875 109.7659375 -64.26171875 109.0859375 C-65.74671875 108.5909375 -65.74671875 108.5909375 -67.26171875 108.0859375 C-67.09671875 107.5703125 -66.93171875 107.0546875 -66.76171875 106.5234375 C-66.13203426 103.98877468 -66.13203426 103.98877468 -66.44921875 100.9609375 C-66.19963747 95.80292436 -64.36439479 91.75124997 -62.26171875 87.0859375 C-63.02484375 87.5809375 -63.78796875 88.0759375 -64.57421875 88.5859375 C-67.26171875 90.0859375 -67.26171875 90.0859375 -70.26171875 90.0859375 C-68.82735954 88.6245149 -67.38911289 87.16690701 -65.94921875 85.7109375 C-65.14871094 84.89882812 -64.34820312 84.08671875 -63.5234375 83.25 C-61.26171875 81.0859375 -61.26171875 81.0859375 -58.26171875 79.0859375 C-58.03409727 77.1023789 -57.81061937 75.11789464 -57.63671875 73.12890625 C-57.06464268 70.01228352 -55.49291835 68.24952499 -53.26171875 66.0859375 C-52.60171875 66.0859375 -51.94171875 66.0859375 -51.26171875 66.0859375 C-51.308125 66.77300781 -51.35453125 67.46007812 -51.40234375 68.16796875 C-51.4384375 69.06902344 -51.47453125 69.97007813 -51.51171875 70.8984375 C-51.558125 71.79175781 -51.60453125 72.68507813 -51.65234375 73.60546875 C-51.49186774 76.21006555 -51.49186774 76.21006555 -49.45703125 77.88671875 C-42.40424033 81.73939991 -32.51082245 77.79640017 -25.26171875 76.0859375 C-27.53536052 78.51593286 -28.9444572 79.51399585 -32.26171875 80.0859375 C-30.62698359 83.21068377 -30.62698359 83.21068377 -28.13671875 83.7734375 C-27.51796875 83.8765625 -26.89921875 83.9796875 -26.26171875 84.0859375 C-26.26171875 84.7459375 -26.26171875 85.4059375 -26.26171875 86.0859375 C-25.27171875 86.0859375 -24.28171875 86.0859375 -23.26171875 86.0859375 C-23.59171875 85.0959375 -23.92171875 84.1059375 -24.26171875 83.0859375 C-26.76619391 81.86723821 -26.76619391 81.86723821 -29.26171875 81.0859375 C-26.26171875 79.0859375 -26.26171875 79.0859375 -23.07421875 79.4609375 C-21.68203125 79.7703125 -21.68203125 79.7703125 -20.26171875 80.0859375 C-19.93171875 81.4059375 -19.60171875 82.7259375 -19.26171875 84.0859375 C-14.18891559 85.20823375 -14.18891559 85.20823375 -9.26171875 84.0859375 C-8.93171875 83.0959375 -8.60171875 82.1059375 -8.26171875 81.0859375 C-7.27171875 81.0859375 -6.28171875 81.0859375 -5.26171875 81.0859375 C-8.35266786 75.66691183 -11.18975282 70.69891041 -17.2734375 68.2890625 C-19.9473874 66.67103388 -20.42834705 65.10852688 -21.51171875 62.2109375 C-22.01445312 60.91542969 -22.01445312 60.91542969 -22.52734375 59.59375 C-23.26171875 57.0859375 -23.26171875 57.0859375 -23.26171875 53.0859375 C-11.34765625 47.12890625 -11.34765625 47.12890625 -9.24902344 46.08349609 C-7.44625461 45.17856815 -5.65410346 44.25256452 -3.86328125 43.32421875 C-1.26171875 42.0859375 -1.26171875 42.0859375 0.73828125 42.0859375 C0.73828125 41.4259375 0.73828125 40.7659375 0.73828125 40.0859375 C-7.30074122 42.86353995 -14.48082073 46.07801522 -21.67822266 50.58203125 C-23.16468559 51.48829553 -24.71046863 52.29567801 -26.26171875 53.0859375 C-27.74671875 52.5909375 -27.74671875 52.5909375 -29.26171875 52.0859375 C-23.42882016 48.23601347 -17.8168212 44.56230954 -11.26171875 42.0859375 C-20.6783993 42.60908642 -27.6637639 46.9936618 -35.43359375 52.015625 C-37.92206775 53.47255209 -40.4906631 54.3238972 -43.26171875 55.0859375 C-42.875 54.65023437 -42.48828125 54.21453125 -42.08984375 53.765625 C-39.59339818 50.91077883 -37.29276449 48.1329765 -35.19921875 44.9609375 C-33.16682261 41.94512387 -30.89994505 39.57759567 -28.26171875 37.0859375 C-37.42516402 41.02539579 -37.42516402 41.02539579 -43.40234375 48.59375 C-45.93194175 51.9842616 -48.6217594 52.25450878 -52.57421875 52.9609375 C-65.21669443 55.6899427 -75.61908165 61.4180074 -85.26171875 70.0859375 C-86.17824219 70.86324219 -86.17824219 70.86324219 -87.11328125 71.65625 C-91.15843655 75.33198472 -94.10746072 79.59596776 -97.07421875 84.1484375 C-97.459729 84.73834473 -97.84523926 85.32825195 -98.24243164 85.93603516 C-100.51289042 89.53877156 -102.08531374 92.99652959 -103.26171875 97.0859375 C-104.25171875 97.0859375 -105.24171875 97.0859375 -106.26171875 97.0859375 C-100.69112537 105.7794393 -94.79668335 108.58485808 -85.046875 111.27734375 C-84.45777344 111.54417969 -83.86867187 111.81101563 -83.26171875 112.0859375 C-82.93171875 113.0759375 -82.60171875 114.0659375 -82.26171875 115.0859375 C-83.91171875 115.0859375 -85.56171875 115.0859375 -87.26171875 115.0859375 C-87.26171875 115.7459375 -87.26171875 116.4059375 -87.26171875 117.0859375 C-90.26171875 118.0859375 -90.26171875 118.0859375 -93.26171875 117.0859375 C-94.94717599 116.99305979 -96.63621175 116.95596546 -98.32421875 116.9609375 C-99.20207031 116.95835937 -100.07992187 116.95578125 -100.984375 116.953125 C-103.29370141 116.93760326 -103.29370141 116.93760326 -105.26171875 118.0859375 C-105.14753215 120.02410485 -105.01998452 121.96148849 -104.88671875 123.8984375 C-104.78230469 125.51685547 -104.78230469 125.51685547 -104.67578125 127.16796875 C-104.44976142 130.27219936 -104.44976142 130.27219936 -102.26171875 133.0859375 C-103.13671875 135.7734375 -103.13671875 135.7734375 -104.26171875 138.0859375 C-104.85984375 137.6321875 -105.45796875 137.1784375 -106.07421875 136.7109375 C-108.77750068 134.70278521 -110.9043051 133.18463349 -114.17578125 132.28125 C-125.07723789 128.05866047 -131.10620555 110.21159194 -135.578125 100.11328125 C-143.4203759 80.4642467 -141.8298833 57.11681162 -133.8984375 37.81640625 C-130.10852179 29.01207165 -125.41394781 21.42382098 -119.26171875 14.0859375 C-118.69066406 13.35761719 -118.11960937 12.62929688 -117.53125 11.87890625 C-104.83233278 -3.5818224 -86.35266449 -11.63585056 -67.26171875 -15.9140625 C-66.4625 -16.10613281 -65.66328125 -16.29820313 -64.83984375 -16.49609375 C-42.17693838 -20.17023144 -18.48736608 -13.05873491 0 0 Z " fill="#650202" transform="translate(148.26171875,24.9140625)"/>
<path d="M0 0 C-0.76183594 0.49306641 -0.76183594 0.49306641 -1.5390625 0.99609375 C-6.50018783 4.4242871 -9.63971236 7.89986275 -12.7734375 13.046875 C-14 15 -14 15 -16 17 C-11.67628107 14.97366931 -11.67628107 14.97366931 -8 12 C-6.68041573 11.30651635 -5.34478121 10.64326177 -4 10 C-3.26523438 9.58621094 -2.53046875 9.17242187 -1.7734375 8.74609375 C4.19034019 5.4922411 9.2133748 4.15883591 16 4 C12.84658934 6.54552426 9.57954776 8.2978895 5.9375 10.0625 C2.7959538 11.58861577 -0.09104494 13.06069663 -3 15 C1.51543074 13.3033998 5.76470548 11.17450282 10.0625 9 C10.76955078 8.64421875 11.47660156 8.2884375 12.20507812 7.921875 C12.89150391 7.57640625 13.57792969 7.2309375 14.28515625 6.875 C15.26572998 6.38386719 15.26572998 6.38386719 16.26611328 5.8828125 C17.60740902 5.19988862 18.93090074 4.4819335 20.24609375 3.75 C22 3 22 3 26 3 C26 3.66 26 4.32 26 5 C25.37955811 5.29245605 24.75911621 5.58491211 24.11987305 5.88623047 C21.30791964 7.21337351 18.49769754 8.54414324 15.6875 9.875 C14.71103516 10.33519531 13.73457031 10.79539062 12.72851562 11.26953125 C11.32182617 11.93662109 11.32182617 11.93662109 9.88671875 12.6171875 C8.59060669 13.22989502 8.59060669 13.22989502 7.26831055 13.85498047 C4.8159108 15.03588682 4.8159108 15.03588682 2 17 C2.28875 17.556875 2.5775 18.11375 2.875 18.6875 C4.84225019 22.73129206 6 25.42570268 6 30 C6.845625 30.165 7.69125 30.33 8.5625 30.5 C13.27200631 32.5550573 16.11511979 35.78791595 19 40 C19.69921875 42.2578125 19.69921875 42.2578125 20 44 C18.515 44.495 18.515 44.495 17 45 C16.54625 45.495 16.0925 45.99 15.625 46.5 C13.47312095 48.48634989 11.89381637 48.78296377 9 49 C6 47 6 47 5 44 C3.0085944 43.61866701 1.00720923 43.28674418 -1 43 C-1.33 43.33 -1.66 43.66 -2 44 C-0.68 44.66 0.64 45.32 2 46 C2 46.99 2 47.98 2 49 C1.01 49 0.02 49 -1 49 C-1 48.34 -1 47.68 -1 47 C-2.65 46.67 -4.3 46.34 -6 46 C-6.33 45.01 -6.66 44.02 -7 43 C-5.35 42.01 -3.7 41.02 -2 40 C-2.7734375 40.2165625 -3.546875 40.433125 -4.34375 40.65625 C-18.90322581 44.5483871 -18.90322581 44.5483871 -25 41.5 C-27.9257306 37.84283675 -27.44607589 35.60945082 -27 31 C-26.67 30.34 -26.34 29.68 -26 29 C-28.60454619 31.01753216 -28.60454619 31.01753216 -31 34 C-31.13921875 35.8871875 -31.13921875 35.8871875 -31.28125 37.8125 C-31.69315035 42.06086064 -33.19917117 43.85559088 -36.35351562 46.61328125 C-37.19946289 47.29970703 -37.19946289 47.29970703 -38.0625 48 C-38.91424805 48.73283203 -38.91424805 48.73283203 -39.78320312 49.48046875 C-41.17329661 50.67197745 -42.58460993 51.8386543 -44 53 C-40.375 50 -40.375 50 -37 50 C-37.75837702 55.5614315 -37.75837702 55.5614315 -39.03515625 57.87890625 C-40.21786277 60.47894528 -40.16737533 62.34747613 -40.0625 65.1875 C-40.0085058 66.79089307 -39.97954608 68.39582845 -40 70 C-40.33 70.33 -40.66 70.66 -41 71 C-40.01 71.495 -40.01 71.495 -39 72 C-39 72.66 -39 73.32 -39 74 C-43.95 74.33 -48.9 74.66 -54 75 C-50.52253081 77.3183128 -49.07109225 77.16962884 -45 77 C-44.01 77 -43.02 77 -42 77 C-41.67 77.66 -41.34 78.32 -41 79 C-41.33 79.66 -41.66 80.32 -42 81 C-42.66 81 -43.32 81 -44 81 C-44 83.64 -44 86.28 -44 89 C-41.525 88.505 -41.525 88.505 -39 88 C-39 85.03 -39 82.06 -39 79 C-36.36 78.01 -33.72 77.02 -31 76 C-31 76.66 -31 77.32 -31 78 C-30.38511719 77.98839844 -29.77023438 77.97679687 -29.13671875 77.96484375 C-28.32847656 77.95582031 -27.52023438 77.94679688 -26.6875 77.9375 C-25.48673828 77.92009766 -25.48673828 77.92009766 -24.26171875 77.90234375 C-20.95985838 78.04491112 -19.34545328 78.65454672 -17 81 C-16.34 80.34 -15.68 79.68 -15 79 C-12.6875 78.76953125 -12.6875 78.76953125 -10 78.8125 C-8.6696875 78.82216797 -8.6696875 78.82216797 -7.3125 78.83203125 C-5 79 -5 79 -3 80 C-3 79.34 -3 78.68 -3 78 C4.92912571 78.49133471 4.92912571 78.49133471 8.5 80.1875 C10.54938973 82.66384592 10.7199658 84.84961526 11 88 C11.33 88 11.66 88 12 88 C12 85.03 12 82.06 12 79 C13.95764383 78.80543295 15.91615321 78.61955753 17.875 78.4375 C19.51082031 78.28087891 19.51082031 78.28087891 21.1796875 78.12109375 C24 78 24 78 26 79 C27.80109085 82.42574832 29.4091298 86.13538188 28.55859375 90.01171875 C27.79311725 91.7164756 26.89934257 93.36191174 26 95 C25.62691369 96.32276056 25.26953585 97.65232077 25 99 C26.32 99.99 27.64 100.98 29 102 C17.90200252 110.88301253 5.95071138 116.93716676 -8 120 C-8.65363525 120.16701416 -9.30727051 120.33402832 -9.98071289 120.50610352 C-15.60540694 121.8872299 -20.90391082 122.35208264 -26.6875 122.3125 C-27.56180664 122.30686035 -28.43611328 122.3012207 -29.33691406 122.29541016 C-52.53644306 121.86515815 -73.49451592 112.02516576 -90 96 C-88.1875 95.375 -88.1875 95.375 -86 95 C-85.01 95.66 -84.02 96.32 -83 97 C-82.34 97.33 -81.68 97.66 -81 98 C-80.67 98.66 -80.34 99.32 -80 100 C-79.34 98.35 -78.68 96.7 -78 95 C-78.66 94.34 -79.32 93.68 -80 93 C-80.23046875 90.25 -80.23046875 90.25 -80.1875 87 C-80.18105469 85.9275 -80.17460938 84.855 -80.16796875 83.75 C-80 81 -80 81 -79 79 C-67.47835991 78.81548975 -67.47835991 78.81548975 -62 80 C-62 79.34 -62 78.68 -62 78 C-60.02 77.505 -60.02 77.505 -58 77 C-58 76.34 -58 75.68 -58 75 C-58.61488281 74.96261719 -59.22976562 74.92523438 -59.86328125 74.88671875 C-60.67152344 74.82097656 -61.47976562 74.75523437 -62.3125 74.6875 C-63.11300781 74.62949219 -63.91351563 74.57148438 -64.73828125 74.51171875 C-67.40934452 73.90738492 -68.19984838 72.99791475 -70 71 C-70.94875 70.566875 -71.8975 70.13375 -72.875 69.6875 C-76.75083674 67.59454816 -78.4308033 65.55153662 -81 62 C-81 61.34 -81 60.68 -81 60 C-80.01 60 -79.02 60 -78 60 C-77.896875 59.11828125 -77.79375 58.2365625 -77.6875 57.328125 C-74.98252293 44.23357693 -61.33826293 31.83678405 -50.734375 24.4140625 C-42.69293518 19.30385719 -33.89157031 15.46877555 -24.4375 14.0625 C-20.69834613 13.42425473 -20.25836387 13.32295484 -17.75 10.1875 C-17.1725 9.135625 -16.595 8.08375 -16 7 C-11.68404364 2.87586393 -6.19881583 -2.06627194 0 0 Z " fill="#630506" transform="translate(123,62)"/>
<path d="M0 0 C-0.76183594 0.49306641 -0.76183594 0.49306641 -1.5390625 0.99609375 C-6.50018783 4.4242871 -9.63971236 7.89986275 -12.7734375 13.046875 C-14 15 -14 15 -16 17 C-11.67628107 14.97366931 -11.67628107 14.97366931 -8 12 C-6.68041573 11.30651635 -5.34478121 10.64326177 -4 10 C-3.26523438 9.58621094 -2.53046875 9.17242187 -1.7734375 8.74609375 C4.19034019 5.4922411 9.2133748 4.15883591 16 4 C12.84658934 6.54552426 9.57954776 8.2978895 5.9375 10.0625 C2.7959538 11.58861577 -0.09104494 13.06069663 -3 15 C1.51543074 13.3033998 5.76470548 11.17450282 10.0625 9 C10.76955078 8.64421875 11.47660156 8.2884375 12.20507812 7.921875 C12.89150391 7.57640625 13.57792969 7.2309375 14.28515625 6.875 C15.26572998 6.38386719 15.26572998 6.38386719 16.26611328 5.8828125 C17.60740902 5.19988862 18.93090074 4.4819335 20.24609375 3.75 C22 3 22 3 26 3 C26 3.66 26 4.32 26 5 C25.37955811 5.29245605 24.75911621 5.58491211 24.11987305 5.88623047 C21.30791964 7.21337351 18.49769754 8.54414324 15.6875 9.875 C14.71103516 10.33519531 13.73457031 10.79539062 12.72851562 11.26953125 C11.32182617 11.93662109 11.32182617 11.93662109 9.88671875 12.6171875 C8.59060669 13.22989502 8.59060669 13.22989502 7.26831055 13.85498047 C4.8159108 15.03588682 4.8159108 15.03588682 2 17 C2.28875 17.556875 2.5775 18.11375 2.875 18.6875 C4.84225019 22.73129206 6 25.42570268 6 30 C6.845625 30.165 7.69125 30.33 8.5625 30.5 C13.27200631 32.5550573 16.11511979 35.78791595 19 40 C19.69921875 42.2578125 19.69921875 42.2578125 20 44 C18.515 44.495 18.515 44.495 17 45 C16.54625 45.495 16.0925 45.99 15.625 46.5 C13.47312095 48.48634989 11.89381637 48.78296377 9 49 C6 47 6 47 5 44 C3.0085944 43.61866701 1.00720923 43.28674418 -1 43 C-1.33 43.33 -1.66 43.66 -2 44 C-0.68 44.66 0.64 45.32 2 46 C2 46.99 2 47.98 2 49 C1.01 49 0.02 49 -1 49 C-1 48.34 -1 47.68 -1 47 C-2.65 46.67 -4.3 46.34 -6 46 C-6.33 45.01 -6.66 44.02 -7 43 C-5.35 42.01 -3.7 41.02 -2 40 C-2.7734375 40.2165625 -3.546875 40.433125 -4.34375 40.65625 C-18.90322581 44.5483871 -18.90322581 44.5483871 -25 41.5 C-27.9257306 37.84283675 -27.44607589 35.60945082 -27 31 C-26.67 30.34 -26.34 29.68 -26 29 C-28.60454619 31.01753216 -28.60454619 31.01753216 -31 34 C-31.13921875 35.8871875 -31.13921875 35.8871875 -31.28125 37.8125 C-31.69315035 42.06086064 -33.19917117 43.85559088 -36.35351562 46.61328125 C-37.19946289 47.29970703 -37.19946289 47.29970703 -38.0625 48 C-38.91424805 48.73283203 -38.91424805 48.73283203 -39.78320312 49.48046875 C-41.17329661 50.67197745 -42.58460993 51.8386543 -44 53 C-40.375 50 -40.375 50 -37 50 C-37.75837702 55.5614315 -37.75837702 55.5614315 -39.03515625 57.87890625 C-40.21786277 60.47894528 -40.16737533 62.34747613 -40.0625 65.1875 C-40.0085058 66.79089307 -39.97954608 68.39582845 -40 70 C-40.33 70.33 -40.66 70.66 -41 71 C-40.01 71.99 -40.01 71.99 -39 73 C-42.81235104 73.08809201 -46.62443553 73.1407549 -50.4375 73.1875 C-51.50677734 73.21263672 -52.57605469 73.23777344 -53.67773438 73.26367188 C-62.20010323 73.34185875 -69.99187743 72.20603391 -77 67 C-81 62.56756757 -81 62.56756757 -81 60 C-80.01 60 -79.02 60 -78 60 C-77.8453125 58.67742187 -77.8453125 58.67742187 -77.6875 57.328125 C-74.98252293 44.23357693 -61.33826293 31.83678405 -50.734375 24.4140625 C-42.69293518 19.30385719 -33.89157031 15.46877555 -24.4375 14.0625 C-20.69834613 13.42425473 -20.25836387 13.32295484 -17.75 10.1875 C-17.1725 9.135625 -16.595 8.08375 -16 7 C-11.68404364 2.87586393 -6.19881583 -2.06627194 0 0 Z " fill="#FCF8F8" transform="translate(123,62)"/>
<path d="M0 0 C-1.15173355 2.46800047 -2.04783565 4.04783565 -4 6 C-3.36835937 5.855625 -2.73671875 5.71125 -2.0859375 5.5625 C5.66646318 3.95393271 13.10127559 3.79244228 21 4 C21 5.32 21 6.64 21 8 C18 9 18 9 15.31640625 9.3203125 C11.1071352 10.18298996 7.72715026 11.90056037 3.9375 13.875 C3.24333984 14.22691406 2.54917969 14.57882813 1.83398438 14.94140625 C-1.14572076 16.46380071 -3.99711619 17.99813094 -6.80859375 19.8203125 C-7.53175781 20.20960937 -8.25492187 20.59890625 -9 21 C-10.485 20.505 -10.485 20.505 -12 20 C-6.16710141 16.15007597 -0.55510245 12.47637204 6 10 C-3.41668055 10.52314892 -10.40204515 14.9077243 -18.171875 19.9296875 C-20.660349 21.38661459 -23.22894435 22.2379597 -26 23 C-25.61328125 22.56429687 -25.2265625 22.12859375 -24.828125 21.6796875 C-22.33167943 18.82484133 -20.03104574 16.047039 -17.9375 12.875 C-15.90510386 9.85918637 -13.6382263 7.49165817 -11 5 C-20.16344527 8.93945829 -20.16344527 8.93945829 -26.140625 16.5078125 C-28.670223 19.8983241 -31.36004065 20.16857128 -35.3125 20.875 C-47.95497568 23.6040052 -58.3573629 29.3320699 -68 38 C-68.91652344 38.77730469 -68.91652344 38.77730469 -69.8515625 39.5703125 C-73.8967178 43.24604722 -76.84574197 47.51003026 -79.8125 52.0625 C-80.19801025 52.65240723 -80.58352051 53.24231445 -80.98071289 53.85009766 C-83.26235822 57.47058474 -84.65769094 60.96103418 -86 65 C-88.125 65.875 -88.125 65.875 -90 66 C-91.10876833 62.35690407 -91.5154862 60.22045943 -90.01171875 56.66015625 C-88.45693598 54.00738673 -86.78293683 51.5051391 -85 49 C-84.43023437 48.18273437 -83.86046875 47.36546875 -83.2734375 46.5234375 C-75.50346832 36.10837243 -64.97967151 27.17155218 -53 22 C-52.34 22 -51.68 22 -51 22 C-50.855625 21.195625 -50.71125 20.39125 -50.5625 19.5625 C-50 17 -50 17 -49 16 C-47.58429877 15.91348389 -46.164405 15.89295096 -44.74609375 15.90234375 C-43.46508789 15.90717773 -43.46508789 15.90717773 -42.15820312 15.91210938 C-41.26037109 15.92048828 -40.36253906 15.92886719 -39.4375 15.9375 C-38.53580078 15.94201172 -37.63410156 15.94652344 -36.70507812 15.95117188 C-34.46998686 15.96299775 -32.23502563 15.9794778 -30 16 C-29.73445313 15.23816406 -29.46890625 14.47632812 -29.1953125 13.69140625 C-26.30425537 7.18180376 -19.36473756 3.58652101 -13 1 C-8.6965242 -0.29104274 -4.45972515 -0.07558856 0 0 Z " fill="#ECC9C8" transform="translate(131,57)"/>
<path d="M0 0 C-0.06960937 1.03060547 -0.06960937 1.03060547 -0.140625 2.08203125 C-0.17671875 2.98308594 -0.2128125 3.88414063 -0.25 4.8125 C-0.31960937 6.15248047 -0.31960937 6.15248047 -0.390625 7.51953125 C-0.23014899 10.12412805 -0.23014899 10.12412805 1.8046875 11.80078125 C8.85747842 15.65346241 18.7508963 11.71046267 26 10 C23.72635823 12.42999536 22.31726155 13.42805835 19 14 C19.495 15.485 19.495 15.485 20 17 C15.0918425 20.28422391 11.15953415 22.25116524 5.1875 22.5 C0.80785941 22.64952147 0.80785941 22.64952147 -2.625 25.4375 C-4.54899559 29.02312814 -4.99904285 30.31645395 -4.5625 34.3125 C-4.50390625 36.734375 -4.50390625 36.734375 -5 39 C-7.38529276 41.28568712 -9.99484588 42.66512127 -13 44 C-13.99 43.34 -14.98 42.68 -16 42 C-15.835 41.484375 -15.67 40.96875 -15.5 40.4375 C-14.87031551 37.90283718 -14.87031551 37.90283718 -15.1875 34.875 C-14.93791872 29.71698686 -13.10267604 25.66531247 -11 21 C-11.763125 21.495 -12.52625 21.99 -13.3125 22.5 C-16 24 -16 24 -19 24 C-17.56564079 22.5385774 -16.12739414 21.08096951 -14.6875 19.625 C-13.88699219 18.81289062 -13.08648437 18.00078125 -12.26171875 17.1640625 C-10 15 -10 15 -7 13 C-6.77237852 11.0164414 -6.54890062 9.03195714 -6.375 7.04296875 C-5.73588186 3.56110636 -3.7900216 0 0 0 Z " fill="#F9E9E8" transform="translate(97,91)"/>
<path d="M0 0 C13.86 0.495 13.86 0.495 28 1 C28 1.33 28 1.66 28 2 C23.05 2.33 18.1 2.66 13 3 C16.47746919 5.3183128 17.92890775 5.16962884 22 5 C22.99 5 23.98 5 25 5 C25.33 5.66 25.66 6.32 26 7 C25.67 7.66 25.34 8.32 25 9 C24.34 9 23.68 9 23 9 C23 11.64 23 14.28 23 17 C24.32 17 25.64 17 27 17 C27 18.32 27 19.64 27 21 C23.37 21 19.74 21 16 21 C15.67 19.68 15.34 18.36 15 17 C14.319375 17.680625 13.63875 18.36125 12.9375 19.0625 C10 21 10 21 6.3125 20.9375 C3 20 3 20 1 17 C0.66042437 12.92509248 0.68667514 11.46998729 3 8 C3.66 8 4.32 8 5 8 C5 7.34 5 6.68 5 6 C6.32 5.67 7.64 5.34 9 5 C9 4.34 9 3.68 9 3 C6.03 2.67 3.06 2.34 0 2 C0 1.34 0 0.68 0 0 Z " fill="#6A1C1D" transform="translate(56,134)"/>
<path d="M0 0 C12.77473158 3.63724996 12.77473158 3.63724996 17 8 C19.21101795 12.180452 20.88947621 16.40012551 22 21 C21.67 21.99 21.34 22.98 21 24 C19.02416285 24.73519522 17.01822402 25.39072482 15 26 C14.05125 26.53625 13.1025 27.0725 12.125 27.625 C5.42875798 30.57134649 -1.19523717 28.76419777 -8 27 C-8 25.35 -8 23.7 -8 22 C-7.34 22 -6.68 22 -6 22 C-6 22.66 -6 23.32 -6 24 C-5.01 24 -4.02 24 -3 24 C-3.33 23.01 -3.66 22.02 -4 21 C-6.50447516 19.78130071 -6.50447516 19.78130071 -9 19 C-6 17 -6 17 -2.8125 17.375 C-1.4203125 17.684375 -1.4203125 17.684375 0 18 C0.33 19.32 0.66 20.64 1 22 C6.07280316 23.12229625 6.07280316 23.12229625 11 22 C11.33 21.01 11.66 20.02 12 19 C12.99 19 13.98 19 15 19 C11.81424216 13.41475647 8.93933125 8.64138802 2.75 6.0625 C1 5 1 5 0.25 2.375 C0.1675 1.59125 0.085 0.8075 0 0 Z " fill="#F3DCD9" transform="translate(128,87)"/>
<path d="M0 0 C-0.06960937 1.03060547 -0.06960937 1.03060547 -0.140625 2.08203125 C-0.17671875 2.98308594 -0.2128125 3.88414063 -0.25 4.8125 C-0.31960937 6.15248047 -0.31960937 6.15248047 -0.390625 7.51953125 C-0.23014899 10.12412805 -0.23014899 10.12412805 1.8046875 11.80078125 C8.85747842 15.65346241 18.7508963 11.71046267 26 10 C21.01169591 15.35840407 14.93839786 18.93563279 7.56640625 19.4921875 C6.0239555 19.53852932 4.48064667 19.56201135 2.9375 19.5625 C1.81190674 19.56576294 1.81190674 19.56576294 0.66357422 19.5690918 C-1.47265625 19.50390625 -1.47265625 19.50390625 -5 19 C-5.66 18.01 -6.32 17.02 -7 16 C-10.3 18.97 -13.6 21.94 -17 25 C-17.66 24.67 -18.32 24.34 -19 24 C-17.56564079 22.5385774 -16.12739414 21.08096951 -14.6875 19.625 C-13.88699219 18.81289062 -13.08648437 18.00078125 -12.26171875 17.1640625 C-10 15 -10 15 -7 13 C-6.77237852 11.0164414 -6.54890062 9.03195714 -6.375 7.04296875 C-5.73588186 3.56110636 -3.7900216 0 0 0 Z " fill="#620C0D" transform="translate(97,91)"/>
<path d="M0 0 C1.18851563 0.00902344 2.37703125 0.01804687 3.6015625 0.02734375 C4.51679687 0.03894531 5.43203125 0.05054687 6.375 0.0625 C6.375 0.7225 6.375 1.3825 6.375 2.0625 C5.64796875 2.28164062 4.9209375 2.50078125 4.171875 2.7265625 C-7.96472264 6.55425868 -18.07220679 11.59525147 -27.625 20.0625 C-28.23859375 20.58199219 -28.8521875 21.10148437 -29.484375 21.63671875 C-36.42004012 27.95199181 -42.48602112 37.26007246 -45.625 46.0625 C-46.285 46.0625 -46.945 46.0625 -47.625 46.0625 C-48.62101733 43.46078199 -48.71521768 42.31437471 -47.76171875 39.65234375 C-39.44567923 24.43242236 -26.57416 13.4866429 -11.453125 5.31640625 C-9.3072039 4.11489737 -9.3072039 4.11489737 -8.625 1.0625 C-5.74084117 -0.37957941 -3.20778472 -0.03144887 0 0 Z " fill="#6B2728" transform="translate(90.625,74.9375)"/>
<path d="M0 0 C0.99 0.495 0.99 0.495 2 1 C-0.0968007 4.18132414 -1.74721892 5.64995621 -5.2734375 7.0703125 C-6.5109375 7.57884766 -6.5109375 7.57884766 -7.7734375 8.09765625 C-8.63195312 8.43667969 -9.49046875 8.77570313 -10.375 9.125 C-11.22578125 9.47175781 -12.0765625 9.81851563 -12.953125 10.17578125 C-14.5968077 10.84400739 -16.24354694 11.50477469 -17.89355469 12.15722656 C-19.43617457 12.77441755 -20.96202623 13.43397398 -22.4765625 14.1171875 C-30.78899222 17.02525115 -39.07833793 17.32389416 -47.8125 17.25 C-49.53617798 17.23984863 -49.53617798 17.23984863 -51.29467773 17.22949219 C-62.7845762 17.08922229 -72.61700346 16.2424953 -83 11 C-84.216875 10.505 -85.43375 10.01 -86.6875 9.5 C-90.12660071 7.94267138 -92.92755031 6.17319612 -96 4 C-95.34 3.67 -94.68 3.34 -94 3 C-92.27801133 3.805007 -90.59710348 4.6981788 -88.9375 5.625 C-83.7789347 8.30096676 -78.70543746 10.2018145 -73.125 11.8125 C-72.41206787 12.01891113 -71.69913574 12.22532227 -70.96459961 12.43798828 C-48.50374602 18.71238177 -26.42195861 14.42823419 -6 4 C-3.94801147 2.72654523 -1.9793513 1.38645805 0 0 Z " fill="#C1AEAB" transform="translate(145,168)"/>
<path d="M0 0 C2.4375 1.5625 2.4375 1.5625 4 4 C4 7.77684879 3.78395245 10.03513544 1.375 13 C-2.07663304 14.45331917 -4.42809484 13.92604949 -8 13 C-10.32749345 9.50875983 -10.50299316 8.10777749 -10 4 C-7.21921757 -0.06422047 -4.81255755 -0.80209293 0 0 Z " fill="#F7E3E2" transform="translate(67,141)"/>
<path d="M0 0 C2.375 1.0625 2.375 1.0625 4 3 C4.57491549 6.95254396 4.61372366 9.07941451 2.375 12.4375 C-0.68118452 14.44814771 -2.40649325 14.53520313 -6 14 C-7.875 13 -7.875 13 -9 11 C-9.53967465 7.40216898 -9.68523932 4.21820324 -7.875 1 C-5.08970454 -0.48549091 -3.10747489 -0.38050713 0 0 Z " fill="#F7E4E2" transform="translate(114,141)"/>
<path d="M0 0 C2.375 1.0625 2.375 1.0625 4 3 C4.57491549 6.95254396 4.61372366 9.07941451 2.375 12.4375 C-0.68118452 14.44814771 -2.40649325 14.53520313 -6 14 C-7.875 13 -7.875 13 -9 11 C-9.53967465 7.40216898 -9.68523932 4.21820324 -7.875 1 C-5.08970454 -0.48549091 -3.10747489 -0.38050713 0 0 Z " fill="#F6DFDD" transform="translate(129,141)"/>
<path d="M0 0 C4.17632831 0.61416593 7.48201538 1.62918428 11 4 C13.27932114 7.99731693 14 11.40707058 14 16 C12.35 16.33 10.7 16.66 9 17 C9 17.66 9 18.32 9 19 C4.5048914 21.32005605 -0.03635538 21.6320746 -5 21 C-5.99 20.34 -6.98 19.68 -8 19 C-8 18.01 -8 17.02 -8 16 C-10.475 15.01 -10.475 15.01 -13 14 C-10 12 -10 12 -6.8125 12.375 C-5.884375 12.58125 -4.95625 12.7875 -4 13 C-3.67 14.32 -3.34 15.64 -3 17 C2.07280316 18.12229625 2.07280316 18.12229625 7 17 C7.33 16.01 7.66 15.02 8 14 C8.99 14 9.98 14 11 14 C7.94242536 8.54777619 4.95907408 4.80580104 0 1 C0 0.67 0 0.34 0 0 Z " fill="#671D1F" transform="translate(132,92)"/>
<path d="M0 0 C8.08587944 -0.35672998 8.08587944 -0.35672998 11.5625 1 C13.93015546 4.29412933 13.37983164 7.01176775 13 11 C11 13 11 13 8.3984375 13.1953125 C5.59895833 13.13020833 2.79947917 13.06510417 0 13 C0 8.71 0 4.42 0 0 Z " fill="#F7E2DF" transform="translate(135,141)"/>
<path d="M0 0 C-3.39887305 2.26591536 -6.96706613 4.01648175 -10.625 5.8125 C-15.97610023 8.44806268 -21.21483034 11.15764616 -26.30078125 14.28515625 C-28 15 -28 15 -31 14 C-25.16710141 10.15007597 -19.55510245 6.47637204 -13 4 C-19.98990075 4.38832782 -24.9053706 6.67282987 -31 10 C-32.33060675 10.67209218 -33.66300718 11.34070308 -35 12 C-29.64122607 4.39399829 -22.61571357 1.91342979 -13.640625 0.3046875 C-9.09363456 -0.21996524 -4.56842438 -0.15633391 0 0 Z " fill="#6E3133" transform="translate(150,63)"/>
<path d="M0 0 C-1.299375 1.485 -1.299375 1.485 -2.625 3 C-4.90808563 5.65462551 -7.05069832 8.36708471 -9.125 11.1875 C-12.97487704 16.34394153 -15.6020246 19.25509762 -22 21 C-21.61328125 20.56429687 -21.2265625 20.12859375 -20.828125 19.6796875 C-18.33167943 16.82484133 -16.03104574 14.047039 -13.9375 10.875 C-11.90510386 7.85918637 -9.6382263 5.49165817 -7 3 C-16.87468491 7.43503021 -16.87468491 7.43503021 -23 16 C-23.66 16 -24.32 16 -25 16 C-23.63521878 10.37027745 -19.56415317 7.19415031 -15 4 C-9.99373502 1.40190801 -5.68609868 -0.25249106 0 0 Z " fill="#692524" transform="translate(127,59)"/>
<path d="M0 0 C2.475 0.99 2.475 0.99 5 2 C4.525625 2.598125 4.05125 3.19625 3.5625 3.8125 C1.31369498 8.40006225 1.256466 12.95027297 1 18 C-0.65 18.66 -2.3 19.32 -4 20 C-6.57691616 16.13462576 -6.58559425 14.61155472 -6 10 C-4.24353778 6.49728754 -2.19316623 3.24405838 0 0 Z " fill="#671315" transform="translate(88,112)"/>
<path d="M0 0 C6.8359375 -0.1953125 6.8359375 -0.1953125 9 0 C11 2 11 2 11.3125 4.5 C11.1578125 5.7375 11.1578125 5.7375 11 7 C8 9 8 9 4 9 C4 9.99 4 10.98 4 12 C4.66 12.33 5.32 12.66 6 13 C4.02 13 2.04 13 0 13 C0 8.71 0 4.42 0 0 Z " fill="#FEF5F2" transform="translate(44,141)"/>
<path d="M0 0 C0 0.66 0 1.32 0 2 C-0.60996826 2.28198242 -1.21993652 2.56396484 -1.84838867 2.85449219 C-4.63143344 4.14593073 -7.40945299 5.44784761 -10.1875 6.75 C-11.14720703 7.1934375 -12.10691406 7.636875 -13.09570312 8.09375 C-17.87888866 10.34466084 -21.96035685 12.53513573 -26 16 C-26.66 16 -27.32 16 -28 16 C-28 15.34 -28 14.68 -28 14 C-28.99 14 -29.98 14 -31 14 C-30.67 13.34 -30.34 12.68 -30 12 C-28.67626595 11.63038254 -27.34087749 11.3015567 -26 11 C-23.53301797 9.74541165 -21.10780357 8.46348304 -18.6875 7.125 C-5.75549451 0 -5.75549451 0 0 0 Z " fill="#F6E2E0" transform="translate(149,65)"/>
<path d="M0 0 C3.63 0 7.26 0 11 0 C11 1.32 11 2.64 11 4 C10.34 4 9.68 4 9 4 C9 3.34 9 2.68 9 2 C7.68 2 6.36 2 5 2 C5 3.32 5 4.64 5 6 C6.32 5.67 7.64 5.34 9 5 C8.67 6.32 8.34 7.64 8 9 C7.01 8.67 6.02 8.34 5 8 C5 9.32 5 10.64 5 12 C5.66 12.33 6.32 12.66 7 13 C4.69 13 2.38 13 0 13 C0 8.71 0 4.42 0 0 Z " fill="#F6E1E1" transform="translate(92,141)"/>
<path d="M0 0 C6.49726609 12.58226911 3.30547236 29.83713684 0 43 C-0.33 43 -0.66 43 -1 43 C-0.9278125 42.15824219 -0.855625 41.31648438 -0.78125 40.44921875 C0.22634358 26.97265463 0.09635279 13.5071785 0 0 Z " fill="#6D292B" transform="translate(181,77)"/>
<path d="M0 0 C-3.10727249 2.49027819 -6.31296827 4.29054783 -9.875 6.0625 C-10.88304687 6.56910156 -11.89109375 7.07570313 -12.9296875 7.59765625 C-20.7952936 11.1902168 -20.7952936 11.1902168 -24.375 10.625 C-24.91125 10.41875 -25.4475 10.2125 -26 10 C-23.99133587 7.99133587 -22.53636118 7.20024234 -20 6 C-18.7934375 5.37931641 -18.7934375 5.37931641 -17.5625 4.74609375 C-16.716875 4.31425781 -15.87125 3.88242188 -15 3.4375 C-14.154375 3.00308594 -13.30875 2.56867188 -12.4375 2.12109375 C-8.1642707 0.1556822 -4.69667773 -0.10674268 0 0 Z " fill="#F2E0DF" transform="translate(139,66)"/>
<path d="M0 0 C0.66 0.33 1.32 0.66 2 1 C-0.0968007 4.18132414 -1.74721892 5.64995621 -5.2734375 7.0703125 C-6.0984375 7.40933594 -6.9234375 7.74835938 -7.7734375 8.09765625 C-8.63195312 8.43667969 -9.49046875 8.77570313 -10.375 9.125 C-11.65117187 9.64513672 -11.65117187 9.64513672 -12.953125 10.17578125 C-14.58966968 10.84110549 -16.22874176 11.50025604 -17.87060547 12.15234375 C-19.53566919 12.81516205 -21.19162363 13.50087477 -22.84375 14.1953125 C-26.27860331 15.47715993 -29.3344628 15.76351373 -33 16 C-33.99 15.34 -34.98 14.68 -36 14 C-35.175 13.86464844 -34.35 13.72929687 -33.5 13.58984375 C-26.41869694 12.27000267 -20.08021912 10.45905947 -13.5 7.5625 C-12.84257812 7.27431396 -12.18515625 6.98612793 -11.5078125 6.68920898 C-7.37972691 4.80682302 -3.71274265 2.60694121 0 0 Z " fill="#B79F9D" transform="translate(145,168)"/>
<path d="M0 0 C2 2 2 2 2.125 5.625 C2.08375 6.73875 2.0425 7.8525 2 9 C1.34 8.34 0.68 7.68 0 7 C-0.33 7.99 -0.66 8.98 -1 10 C-1.99 10.495 -1.99 10.495 -3 11 C-3.165 11.66 -3.33 12.32 -3.5 13 C-3.665 13.66 -3.83 14.32 -4 15 C-4.99 15.495 -4.99 15.495 -6 16 C-8.625 15.0625 -8.625 15.0625 -11 14 C-11 13.67 -11 13.34 -11 13 C-9.35 12.67 -7.7 12.34 -6 12 C-6 10.68 -6 9.36 -6 8 C-5.01 8 -4.02 8 -3 8 C-3 7.34 -3 6.68 -3 6 C-3.99 6 -4.98 6 -6 6 C-6 4.68 -6 3.36 -6 2 C-4.68 2 -3.36 2 -2 2 C-2 2.66 -2 3.32 -2 4 C-1.34 4 -0.68 4 0 4 C0 2.68 0 1.36 0 0 Z " fill="#6E2828" transform="translate(103,141)"/>
<path d="M0 0 C-0.57484409 4.0095375 -1.83371774 6.71935433 -4 10.125 C-5.69670099 12.80872417 -6.99256926 14.97770778 -8 18 C-8.66 18 -9.32 18 -10 18 C-11.14356445 15.18762929 -11.07034549 14.17066212 -9.890625 11.30859375 C-9.34921875 10.36113281 -8.8078125 9.41367188 -8.25 8.4375 C-7.71890625 7.48746094 -7.1878125 6.53742188 -6.640625 5.55859375 C-3.07633588 0 -3.07633588 0 0 0 Z " fill="#621518" transform="translate(53,103)"/>
<path d="M0 0 C1.53271273 4.58798777 0.02911182 6.77944742 -2 11 C-2.66 11 -3.32 11 -4 11 C-4 12.32 -4 13.64 -4 15 C-5.4609375 16.5625 -5.4609375 16.5625 -7.375 18 C-10.20785885 20.14504538 -11.43470567 21.8433231 -13 25 C-15.625 26.25 -15.625 26.25 -18 27 C-17.6596875 26.55011719 -17.319375 26.10023438 -16.96875 25.63671875 C-15.30564158 23.42956156 -13.65313217 21.21463909 -12 19 C-11.32710937 18.10925781 -10.65421875 17.21851563 -9.9609375 16.30078125 C-6.04433422 11.04197123 -2.70632911 5.97647679 0 0 Z " fill="#D4BEBA" transform="translate(175,133)"/>
<path d="M0 0 C1.65 0.33 3.3 0.66 5 1 C5.125 4.375 5.125 4.375 5 8 C4.34 8.66 3.68 9.32 3 10 C0.875 9.625 0.875 9.625 -1 9 C-1.625 6.1875 -1.625 6.1875 -2 3 C-1.34 2.01 -0.68 1.02 0 0 Z " fill="#611214" transform="translate(62,143)"/>
<path d="M0 0 C3.53571429 0.53571429 3.53571429 0.53571429 5 2 C5.1875 4.9375 5.1875 4.9375 5 8 C4.34 8.66 3.68 9.32 3 10 C-0.53571429 9.46428571 -0.53571429 9.46428571 -2 8 C-2.1875 5.0625 -2.1875 5.0625 -2 2 C-1.34 1.34 -0.68 0.68 0 0 Z " fill="#67272A" transform="translate(125,143)"/>
<path d="M0 0 C2.125 0.375 2.125 0.375 4 1 C4.625 3.8125 4.625 3.8125 5 7 C4.01 8.485 4.01 8.485 3 10 C-0.875 9.125 -0.875 9.125 -2 8 C-2.1875 5.0625 -2.1875 5.0625 -2 2 C-1.34 1.34 -0.68 0.68 0 0 Z " fill="#621214" transform="translate(110,143)"/>
<path d="M0 0 C1.98 0 3.96 0 6 0 C5.67 3.96 5.34 7.92 5 12 C5.66 12 6.32 12 7 12 C7 12.66 7 13.32 7 14 C4.69 14 2.38 14 0 14 C0 13.34 0 12.68 0 12 C0.66 12 1.32 12 2 12 C2 8.7 2 5.4 2 2 C1.34 2 0.68 2 0 2 C0 1.34 0 0.68 0 0 Z " fill="#F0D3D2" transform="translate(84,141)"/>
<path d="M0 0 C1.98 0 3.96 0 6 0 C5.67 3.96 5.34 7.92 5 12 C6.32 12 7.64 12 9 12 C9 11.34 9 10.68 9 10 C9.66 10 10.32 10 11 10 C11 10.99 11 11.98 11 13 C7.7 13 4.4 13 1 13 C1.33 9.37 1.66 5.74 2 2 C1.34 2 0.68 2 0 2 C0 1.34 0 0.68 0 0 Z " fill="#FAE1DF" transform="translate(72,141)"/>
<path d="M0 0 C4.29 0 8.58 0 13 0 C13 0.66 13 1.32 13 2 C11.06643218 2.69848264 9.12797702 3.38344814 7.1875 4.0625 C6.10855469 4.44535156 5.02960938 4.82820313 3.91796875 5.22265625 C1 6 1 6 -2 5 C-1.34 3.35 -0.68 1.7 0 0 Z " fill="#5E1415" transform="translate(84,75)"/>
<path d="M0 0 C1.21816406 0.03480469 1.21816406 0.03480469 2.4609375 0.0703125 C3.68683594 0.09738281 3.68683594 0.09738281 4.9375 0.125 C5.87722656 0.15980469 5.87722656 0.15980469 6.8359375 0.1953125 C6.8359375 0.5253125 6.8359375 0.8553125 6.8359375 1.1953125 C4.5259375 1.1953125 2.2159375 1.1953125 -0.1640625 1.1953125 C-0.4321875 1.8346875 -0.7003125 2.4740625 -0.9765625 3.1328125 C-2.1640625 5.1953125 -2.1640625 5.1953125 -5.1640625 6.1953125 C-5.4940625 10.1553125 -5.8240625 14.1153125 -6.1640625 18.1953125 C-6.8240625 17.8653125 -7.4840625 17.5353125 -8.1640625 17.1953125 C-8.66630911 10.91722992 -8.35488941 7.24895672 -4.1640625 2.1953125 C-2.1640625 0.1953125 -2.1640625 0.1953125 0 0 Z " fill="#732C2E" transform="translate(99.1640625,112.8046875)"/>
<path d="M0 0 C1.44977894 2.34112451 2.04314411 3.5796929 1.7578125 6.359375 C1.54898438 7.14828125 1.34015625 7.9371875 1.125 8.75 C0.92132813 9.54921875 0.71765625 10.3484375 0.5078125 11.171875 C0.25644531 12.07679687 0.25644531 12.07679687 0 13 C-0.99 13 -1.98 13 -3 13 C-5.0126087 14.54171668 -5.0126087 14.54171668 -7 16.5 C-10.66666667 20 -10.66666667 20 -14 20 C-12.56564079 18.5385774 -11.12739414 17.08096951 -9.6875 15.625 C-8.88699219 14.81289062 -8.08648437 14.00078125 -7.26171875 13.1640625 C-5 11 -5 11 -2 9 C-1.45897058 7.06830219 -1.45897058 7.06830219 -1.375 4.9375 C-1 1 -1 1 0 0 Z " fill="#794145" transform="translate(92,95)"/>
<path d="M0 0 C-0.99 1.485 -0.99 1.485 -2 3 C-3.92203859 3.19883158 -5.84457908 3.39419817 -7.76953125 3.5625 C-12.96704366 4.58197704 -17.48439988 8.14714754 -21 12 C-22.17574711 14.09989652 -22.17574711 14.09989652 -23 16 C-23.66 16 -24.32 16 -25 16 C-23.63521878 10.37027745 -19.56415317 7.19415031 -15 4 C-9.99373502 1.40190801 -5.68609868 -0.25249106 0 0 Z " fill="#724447" transform="translate(127,59)"/>
<path d="M0 0 C0.66 0.33 1.32 0.66 2 1 C0.78294994 2.01471171 -0.44926884 3.0112461 -1.6875 4 C-2.71423828 4.8353125 -2.71423828 4.8353125 -3.76171875 5.6875 C-6.38783056 7.22741897 -8.00603356 7.25168194 -11 7 C-11.33 7.99 -11.66 8.98 -12 10 C-13.98 10 -15.96 10 -18 10 C-14.33122282 6.84058401 -10.70742748 4.70706189 -6.3125 2.6875 C-4.60513672 1.88892578 -4.60513672 1.88892578 -2.86328125 1.07421875 C-1.44595703 0.54248047 -1.44595703 0.54248047 0 0 Z " fill="#621719" transform="translate(66,13)"/>
<path d="M0 0 C-2.26404542 1.36680153 -4.53501021 2.71844445 -6.8125 4.0625 C-7.45509766 4.45244141 -8.09769531 4.84238281 -8.75976562 5.24414062 C-10.4628915 6.24130759 -12.22945858 7.12812687 -14 8 C-14.99 7.67 -15.98 7.34 -17 7 C-15.43694683 3.67783124 -14.60507183 2.25066076 -11.15234375 0.8203125 C-10.09144531 0.59085937 -9.03054687 0.36140625 -7.9375 0.125 C-6.87402344 -0.11992188 -5.81054688 -0.36484375 -4.71484375 -0.6171875 C-2 -1 -2 -1 0 0 Z " fill="#703232" transform="translate(123,102)"/>
<path d="M0 0 C0.5534764 2.07553648 1 3.84365964 1 6 C0.25234375 6.39832031 -0.4953125 6.79664062 -1.265625 7.20703125 C-2.25046875 7.73683594 -3.2353125 8.26664063 -4.25 8.8125 C-5.22453125 9.33457031 -6.1990625 9.85664062 -7.203125 10.39453125 C-9.98472182 11.88349212 -9.98472182 11.88349212 -12.109375 13.76171875 C-14 15 -14 15 -16.25 14.6875 C-16.8275 14.460625 -17.405 14.23375 -18 14 C-17.02417969 13.37351562 -16.04835938 12.74703125 -15.04296875 12.1015625 C-13.75780386 11.27605512 -12.47264808 10.45053355 -11.1875 9.625 C-10.22360352 9.00625 -10.22360352 9.00625 -9.24023438 8.375 C-3.42489902 5.18988954 -3.42489902 5.18988954 0 0 Z " fill="#652B2D" transform="translate(82,76)"/>
<path d="M0 0 C0.83595703 0.00451172 1.67191406 0.00902344 2.53320312 0.01367188 C4.58466649 0.02539452 6.63609273 0.04332797 8.6875 0.0625 C8.6875 0.3925 8.6875 0.7225 8.6875 1.0625 C7.85605469 1.11148437 7.02460937 1.16046875 6.16796875 1.2109375 C5.08128906 1.28570312 3.99460937 1.36046875 2.875 1.4375 C1.79605469 1.50710938 0.71710938 1.57671875 -0.39453125 1.6484375 C-3.49876186 1.87445733 -3.49876186 1.87445733 -6.3125 4.0625 C-9.23046875 4.0390625 -9.23046875 4.0390625 -12.5 3.6875 C-13.58667969 3.57664062 -14.67335938 3.46578125 -15.79296875 3.3515625 C-16.62441406 3.25617187 -17.45585938 3.16078125 -18.3125 3.0625 C-12.37515208 -0.23602662 -6.61466822 -0.06786952 0 0 Z " fill="#7A3739" transform="translate(95.3125,7.9375)"/>
<path d="M0 0 C0.66 0 1.32 0 2 0 C2 0.66 2 1.32 2 2 C2.91523437 2.10957031 3.83046875 2.21914062 4.7734375 2.33203125 C6.55621094 2.56986328 6.55621094 2.56986328 8.375 2.8125 C10.15003906 3.03873047 10.15003906 3.03873047 11.9609375 3.26953125 C15 4 15 4 17 7 C10.9981863 7.21824777 5.80766296 6.5056904 0 5 C0 3.35 0 1.7 0 0 Z " fill="#DCBEBB" transform="translate(120,109)"/>
<path d="M0 0 C0.33 0 0.66 0 1 0 C2.25550661 5.52422907 2.25550661 5.52422907 1.09375 7.6875 C-0.50359154 11.0647364 -0.72929462 14.57837301 -1.125 18.25 C-1.25455078 19.36761719 -1.25455078 19.36761719 -1.38671875 20.5078125 C-1.59786867 22.33777846 -1.79984545 24.16879879 -2 26 C-2.33 26 -2.66 26 -3 26 C-3.28098092 17.05544066 -2.84843193 8.5452958 0 0 Z " fill="#560A0C" transform="translate(12,69)"/>
<path d="M0 0 C-0.53109375 0.37511719 -1.0621875 0.75023437 -1.609375 1.13671875 C-5.68773728 4.09129873 -9.06192 6.83771999 -12 11 C-12.79953138 7.71303767 -13.09658936 6.28976808 -12 3 C-10.0390625 1.796875 -10.0390625 1.796875 -7.625 0.75 C-6.83351563 0.39421875 -6.04203125 0.0384375 -5.2265625 -0.328125 C-3 -1 -3 -1 0 0 Z " fill="#F5E0E0" transform="translate(123,62)"/>
<path d="M0 0 C2.9375 0.1875 2.9375 0.1875 3.9375 1.1875 C3.97813832 2.85367115 3.980221 4.52138095 3.9375 6.1875 C5.9175 6.1875 7.8975 6.1875 9.9375 6.1875 C6.11232487 8.57823445 2.34084476 8.74716552 -2.0625 9.1875 C-0.4125 6.8775 1.2375 4.5675 2.9375 2.1875 C0.2975 2.1875 -2.3425 2.1875 -5.0625 2.1875 C-3.0625 0.1875 -3.0625 0.1875 0 0 Z " fill="#651E20" transform="translate(128.0625,54.8125)"/>
<path d="M0 0 C4 1 4 1 5 2 C5.04080783 3.99958364 5.04254356 6.00045254 5 8 C3.35 8.33 1.7 8.66 0 9 C0 6.03 0 3.06 0 0 Z " fill="#581115" transform="translate(140,143)"/>
<path d="M0 0 C2.80121425 1.10047703 3.98540917 1.98037784 5.8125 4.4375 C8.62517486 7.73234769 10.96895912 8.52711968 15 10 C11.17490842 11.47118907 8.71687005 10.45442741 5 9 C4.34 8.67 3.68 8.34 3 8 C3 6.68 3 5.36 3 4 C2.01 4 1.02 4 0 4 C0 2.68 0 1.36 0 0 Z " fill="#641619" transform="translate(40,123)"/>
<path d="M0 0 C0.66 1.32 1.32 2.64 2 4 C1.37351563 4.27714844 0.74703125 4.55429688 0.1015625 4.83984375 C-0.71570313 5.20207031 -1.53296875 5.56429687 -2.375 5.9375 C-3.18710938 6.29714844 -3.99921875 6.65679687 -4.8359375 7.02734375 C-6.23683785 7.6569903 -7.62625284 8.31312642 -9 9 C-11.6723621 9.13415472 -14.32250488 9.04318541 -17 9 C-14.61766476 7.7172041 -12.40889449 6.81455513 -9.8125 6 C-6.87134522 5.32012508 -6.87134522 5.32012508 -6 3 C-3.03 3.495 -3.03 3.495 0 4 C0 2.68 0 1.36 0 0 Z " fill="#E3BFBF" transform="translate(148,106)"/>
<path d="M0 0 C0.99 0 1.98 0 3 0 C3 3.3 3 6.6 3 10 C5.97 10.33 8.94 10.66 12 11 C12 11.33 12 11.66 12 12 C8.37 12 4.74 12 1 12 C-0.07396066 7.70415737 -0.07329796 4.39787789 0 0 Z " fill="#853A39" transform="translate(71,143)"/>
<path d="M0 0 C0.99 0 1.98 0 3 0 C2.68289062 0.56203125 2.36578125 1.1240625 2.0390625 1.703125 C0.93125475 4.15196317 0.61024601 6.08387855 0.375 8.75 C0.30023438 9.54921875 0.22546875 10.3484375 0.1484375 11.171875 C0.09945312 11.77515625 0.05046875 12.3784375 0 13 C-0.99 13 -1.98 13 -3 13 C-2.96519531 12.38511719 -2.93039063 11.77023438 -2.89453125 11.13671875 C-2.86746094 10.32847656 -2.84039062 9.52023438 -2.8125 8.6875 C-2.77769531 7.88699219 -2.74289063 7.08648437 -2.70703125 6.26171875 C-3.06198392 3.52148416 -3.89366282 2.70828921 -6 1 C-3.03 1.495 -3.03 1.495 0 2 C0 1.34 0 0.68 0 0 Z " fill="#681B1C" transform="translate(120,140)"/>
<path d="M0 0 C2.97 0 5.94 0 9 0 C10 3 10 3 9 6 C7.35 6.33 5.7 6.66 4 7 C4 5.02 4 3.04 4 1 C2.68 0.67 1.36 0.34 0 0 Z " fill="#EFCACA" transform="translate(44,141)"/>
<path d="M0 0 C0.99 0.33 1.98 0.66 3 1 C1.06613122 2.48413185 -0.87178073 3.96237428 -2.8125 5.4375 C-3.35970703 5.85837891 -3.90691406 6.27925781 -4.47070312 6.71289062 C-6.97679457 8.61144475 -8.99420019 9.99806673 -12 11 C-10.58590577 7.60470083 -8.97643772 5.94087183 -6 3.8125 C-4.948125 3.04873047 -4.948125 3.04873047 -3.875 2.26953125 C-2 1 -2 1 0 0 Z " fill="#F0D1CF" transform="translate(71,83)"/>
<path d="M0 0 C0.99 0.33 1.98 0.66 3 1 C0.39905966 4.17892708 -2.000715 5.15804526 -6 6 C-10.02597245 5.86631509 -14.00155248 5.47877851 -18 5 C-18 4.67 -18 4.34 -18 4 C-17.11957031 3.96261719 -16.23914063 3.92523438 -15.33203125 3.88671875 C-13.58986328 3.78810547 -13.58986328 3.78810547 -11.8125 3.6875 C-10.66394531 3.62949219 -9.51539062 3.57148437 -8.33203125 3.51171875 C-4.83028044 2.97393521 -2.968872 1.83054802 0 0 Z " fill="#DDBDBF" transform="translate(114,106)"/>
<path d="M0 0 C0.59167969 0.350625 1.18335938 0.70125 1.79296875 1.0625 C1.22449219 1.22105469 0.65601563 1.37960938 0.0703125 1.54296875 C-5.55854785 3.24384308 -9.58801596 5.42625392 -14.20703125 9.0625 C-14.86703125 8.7325 -15.52703125 8.4025 -16.20703125 8.0625 C-5.24879898 -2.22957833 -5.24879898 -2.22957833 0 0 Z " fill="#6F393A" transform="translate(131.20703125,65.9375)"/>
<path d="M0 0 C0.99 0 1.98 0 3 0 C3.25 6.625 3.25 6.625 1 10 C-2.125 10.1875 -2.125 10.1875 -5 10 C-4.360625 9.649375 -3.72125 9.29875 -3.0625 8.9375 C-0.17836168 6.22815794 -0.2899178 3.84141089 0 0 Z " fill="#FAEAE7" transform="translate(130,144)"/>
<path d="M0 0 C3.63 0 7.26 0 11 0 C11 1.32 11 2.64 11 4 C10.34 4 9.68 4 9 4 C9 3.34 9 2.68 9 2 C6.69 1.67 4.38 1.34 2 1 C2 4.63 2 8.26 2 12 C1.67 12 1.34 12 1 12 C0.67 8.04 0.34 4.08 0 0 Z " fill="#DDABA9" transform="translate(92,141)"/>
<path d="M0 0 C0.66 0.66 1.32 1.32 2 2 C1.67 2.33 1.34 2.66 1 3 C2.32 3.66 3.64 4.32 5 5 C5 5.99 5 6.98 5 8 C4.01 8 3.02 8 2 8 C2 7.34 2 6.68 2 6 C0.35 5.67 -1.3 5.34 -3 5 C-3.33 4.01 -3.66 3.02 -4 2 C-2.68 1.34 -1.36 0.68 0 0 Z " fill="#F5E1E3" transform="translate(120,103)"/>
<path d="M0 0 C0.928125 0.20625 1.85625 0.4125 2.8125 0.625 C2.93625 1.264375 3.06 1.90375 3.1875 2.5625 C3.39375 3.243125 3.6 3.92375 3.8125 4.625 C4.4725 4.955 5.1325 5.285 5.8125 5.625 C4.8225 5.625 3.8325 5.625 2.8125 5.625 C2.8125 4.635 2.8125 3.645 2.8125 2.625 C2.1525 2.625 1.4925 2.625 0.8125 2.625 C0.8125 4.275 0.8125 5.925 0.8125 7.625 C0.1525 7.295 -0.5075 6.965 -1.1875 6.625 C-1.1875 5.635 -1.1875 4.645 -1.1875 3.625 C-3.6625 2.635 -3.6625 2.635 -6.1875 1.625 C-3.1875 -0.375 -3.1875 -0.375 0 0 Z " fill="#743737" transform="translate(125.1875,104.375)"/>
<path d="M0 0 C0.99 0 1.98 0 3 0 C3.268125 1.11375 3.53625 2.2275 3.8125 3.375 C4.65809019 7.21840951 4.65809019 7.21840951 8 9 C5.125 9.1875 5.125 9.1875 2 9 C-0.29013653 5.5647952 -0.17842973 4.014669 0 0 Z " fill="#F7E7E6" transform="translate(57,145)"/>
<path d="M0 0 C0.66 0 1.32 0 2 0 C1.40165275 4.14298667 -0.00664285 7.18194377 -2.0625 10.8125 C-2.61035156 11.78832031 -3.15820312 12.76414063 -3.72265625 13.76953125 C-4.14417969 14.50558594 -4.56570312 15.24164063 -5 16 C-5.33 14.68 -5.66 13.36 -6 12 C-5.34 12 -4.68 12 -4 12 C-3.896875 11.13375 -3.79375 10.2675 -3.6875 9.375 C-2.96601586 5.83316877 -1.72876739 3.15687958 0 0 Z " fill="#5B1315" transform="translate(175,128)"/>
<path d="M0 0 C0 0.66 0 1.32 0 2 C-0.99 2.66 -1.98 3.32 -3 4 C-3.57748803 5.96361864 -3.57748803 5.96361864 -3.6875 8.125 C-3.8421875 10.043125 -3.8421875 10.043125 -4 12 C-5.33333333 9.33333333 -6.66666667 6.66666667 -8 4 C-2.25 0 -2.25 0 0 0 Z " fill="#671C1D" transform="translate(132,75)"/>
<path d="M0 0 C0.33 0.99 0.66 1.98 1 3 C0.01 3.33 -0.98 3.66 -2 4 C-2 4.66 -2 5.32 -2 6 C-3.95890881 7.39300182 -5.9639118 8.72245446 -8 10 C-8.99 10.66 -9.98 11.32 -11 12 C-9.56438314 8.81293058 -7.79733671 6.37830895 -5.5 3.75 C-4.8915625 3.04359375 -4.283125 2.3371875 -3.65625 1.609375 C-2 0 -2 0 0 0 Z " fill="#E4C0C0" transform="translate(126,62)"/>
<path d="M0 0 C4.82419514 3.13572684 9.42284316 6.5148552 14 10 C13.01 10.33 12.02 10.66 11 11 C11 10.34 11 9.68 11 9 C10.4225 8.87625 9.845 8.7525 9.25 8.625 C4.86026581 7.40562939 2.44999181 5.9199869 0 2 C0 1.34 0 0.68 0 0 Z " fill="#CAB8B4" transform="translate(35,160)"/>
<path d="M0 0 C5.23220388 -0.38284419 8.44293494 0.58743614 13 3 C13.33 3.99 13.66 4.98 14 6 C9.15904166 6.56952451 6.82586841 4.82781578 3 2 C2.01 1.34 1.02 0.68 0 0 Z " fill="#764248" transform="translate(112,86)"/>
<path d="M0 0 C1.32 0.33 2.64 0.66 4 1 C1.81981814 5.48148494 -0.34829356 7.21849541 -5 9 C-5.66 8.67 -6.32 8.34 -7 8 C-6.21625 7.4225 -5.4325 6.845 -4.625 6.25 C-2.19952756 4.17102363 -1.14305583 2.90959667 0 0 Z " fill="#6B2F32" transform="translate(112,71)"/>
<path d="M0 0 C0.66 0.66 1.32 1.32 2 2 C1.43410156 2.48210937 0.86820313 2.96421875 0.28515625 3.4609375 C-0.44832031 4.09257813 -1.18179688 4.72421875 -1.9375 5.375 C-2.66839844 6.00148438 -3.39929688 6.62796875 -4.15234375 7.2734375 C-6.08380906 8.87747714 -6.08380906 8.87747714 -7 11 C-7.66 11 -8.32 11 -9 11 C-7.59928507 5.70841026 -4.14512755 3.22521956 0 0 Z " fill="#E2BEBB" transform="translate(110,62)"/>
<path d="M0 0 C3.31562557 0.55260426 6.15062207 1.16825705 9 3 C9.33 3.99 9.66 4.98 10 6 C5.96825194 5.72510809 4.43105369 5.46508424 1.625 2.4375 C0.820625 1.2309375 0.820625 1.2309375 0 0 Z " fill="#611011" transform="translate(33,157)"/>
<path d="M0 0 C0.33 0 0.66 0 1 0 C1 3.3 1 6.6 1 10 C0.34 10 -0.32 10 -1 10 C-1 10.66 -1 11.32 -1 12 C0.98 12 2.96 12 5 12 C5 12.33 5 12.66 5 13 C0.545 13.495 0.545 13.495 -4 14 C-4 13.34 -4 12.68 -4 12 C-3.34 12 -2.68 12 -2 12 C-1.1558062 8.02022924 -0.55312735 4.02992782 0 0 Z " fill="#5F1415" transform="translate(85,143)"/>
<path d="M0 0 C0.33 0 0.66 0 1 0 C1 2.97 1 5.94 1 9 C2.32 8.67 3.64 8.34 5 8 C5.33 6.35 5.66 4.7 6 3 C7.42944945 5.35438733 8.08661261 6.48032433 7.625 9.25 C7.41875 9.8275 7.2125 10.405 7 11 C4.69 10.67 2.38 10.34 0 10 C0 6.7 0 3.4 0 0 Z " fill="#CDAEAC" transform="translate(139,143)"/>
<path d="M0 0 C1.98 0.495 1.98 0.495 4 1 C4 2.65 4 4.3 4 6 C2.35 5.67 0.7 5.34 -1 5 C-0.67 3.35 -0.34 1.7 0 0 Z " fill="#610204" transform="translate(125,145)"/>
<path d="M0 0 C0.33 0 0.66 0 1 0 C0.51470588 6.43014706 0.51470588 6.43014706 -1.75 8.9375 C-4.35402628 10.16717908 -6.15312226 10.23723981 -9 10 C-8.360625 9.896875 -7.72125 9.79375 -7.0625 9.6875 C-6.0415625 9.3471875 -6.0415625 9.3471875 -5 9 C-4.67 8.01 -4.34 7.02 -4 6 C-3.34 6 -2.68 6 -2 6 C-2 5.01 -2 4.02 -2 3 C-1.34 3 -0.68 3 0 3 C0 2.01 0 1.02 0 0 Z " fill="#EBCDCA" transform="translate(70,145)"/>
<path d="M0 0 C1.9375 0.375 1.9375 0.375 4 1 C5.4783226 3.95664519 5.06032783 6.74229737 5 10 C2.08772731 6.71195019 0.50298788 4.40114397 0 0 Z " fill="#5E0F13" transform="translate(18,134)"/>
<path d="M0 0 C0.66 0.33 1.32 0.66 2 1 C2 1.66 2 2.32 2 3 C3.65 3 5.3 3 7 3 C7 3.66 7 4.32 7 5 C8.65 5 10.3 5 12 5 C11.67 5.66 11.34 6.32 11 7 C9.39253944 6.57476184 7.78910164 6.13429874 6.1875 5.6875 C5.29417969 5.44386719 4.40085937 5.20023438 3.48046875 4.94921875 C0.94752262 3.9799181 -0.2716496 3.04990396 -2 1 C-1.34 0.67 -0.68 0.34 0 0 Z " fill="#611E1F" transform="translate(57,172)"/>
<path d="M0 0 C0.66 0.33 1.32 0.66 2 1 C-0.19681463 4.46865468 -2.01305369 5.93033148 -6 7 C-8.16015625 6.54296875 -8.16015625 6.54296875 -10 6 C-8.3811004 4.96951963 -6.75467511 3.95085322 -5.125 2.9375 C-4.22007812 2.36902344 -3.31515625 1.80054688 -2.3828125 1.21484375 C-1.20332031 0.61349609 -1.20332031 0.61349609 0 0 Z " fill="#C2AAA9" transform="translate(145,168)"/>
<path d="M0 0 C0.66 0 1.32 0 2 0 C2.33 0.66 2.66 1.32 3 2 C3.66 1.67 4.32 1.34 5 1 C5 2.98 5 4.96 5 7 C3.68 6.67 2.36 6.34 1 6 C0.67 4.02 0.34 2.04 0 0 Z " fill="#6F2222" transform="translate(60,146)"/>
<path d="M0 0 C2.97 0.99 5.94 1.98 9 3 C6.85279101 5.14720899 5.92209857 5.5434221 3 6 C2.34 5.67 1.68 5.34 1 5 C0.375 2.4375 0.375 2.4375 0 0 Z " fill="#E6D2D3" transform="translate(128,87)"/>
<path d="M0 0 C0.66 0 1.32 0 2 0 C2 2.64 2 5.28 2 8 C2.66 8 3.32 8 4 8 C4 8.66 4 9.32 4 10 C2.68 10 1.36 10 0 10 C0 6.7 0 3.4 0 0 Z " fill="#591312" transform="translate(77,143)"/>
<path d="M0 0 C0.99 0 1.98 0 3 0 C2.625 1.9375 2.625 1.9375 2 4 C-0.70879335 5.35439668 -3.00933268 5.06501451 -6 5 C-6 4.34 -6 3.68 -6 3 C-5.195625 2.87625 -4.39125 2.7525 -3.5625 2.625 C-2.716875 2.41875 -1.87125 2.2125 -1 2 C-0.67 1.34 -0.34 0.68 0 0 Z " fill="#F0D4D3" transform="translate(114,150)"/>
<path d="M0 0 C0.66 0.33 1.32 0.66 2 1 C2.625 4.0625 2.625 4.0625 3 7 C2.01 7.33 1.02 7.66 0 8 C0 7.01 0 6.02 0 5 C-1.32 4.67 -2.64 4.34 -4 4 C-2.68 2.68 -1.36 1.36 0 0 Z " fill="#670F11" transform="translate(70,150)"/>
<path d="M0 0 C0.33 0.66 0.66 1.32 1 2 C1.66 2 2.32 2 3 2 C3 4.31 3 6.62 3 9 C2.01 9.33 1.02 9.66 0 10 C0 6.7 0 3.4 0 0 Z " fill="#621615" transform="translate(89,143)"/>
<path d="M0 0 C0.66 0 1.32 0 2 0 C1.67 3.3 1.34 6.6 1 10 C0.34 9.67 -0.32 9.34 -1 9 C-1.125 2.25 -1.125 2.25 0 0 Z " fill="#732928" transform="translate(83,120)"/>
<path d="M0 0 C0.99 0.33 1.98 0.66 3 1 C2.34 3.31 1.68 5.62 1 8 C0.34 8 -0.32 8 -1 8 C-1.93065133 5.39417629 -2.14917407 4.35801776 -1.0625 1.75 C-0.711875 1.1725 -0.36125 0.595 0 0 Z " fill="#642125" transform="translate(44,113)"/>
<path d="M0 0 C-0.66 1.32 -1.32 2.64 -2 4 C-4.46800047 2.84826645 -6.04783565 1.95216435 -8 0 C-4.71023192 -1.09658936 -3.28696233 -0.79953138 0 0 Z " fill="#E0B7B3" transform="translate(153,62)"/>
<path d="M0 0 C0 3 0 3 -2.25 5.75 C-3.1575 6.4925 -4.065 7.235 -5 8 C-6.32 7.67 -7.64 7.34 -9 7 C-6.03 4.69 -3.06 2.38 0 0 Z " fill="#C7B6B2" transform="translate(156,160)"/>
<path d="M0 0 C0.33 1.32 0.66 2.64 1 4 C3.97 4 6.94 4 10 4 C10 4.33 10 4.66 10 5 C8.39620659 5.05416188 6.79188594 5.09286638 5.1875 5.125 C4.29417969 5.14820313 3.40085938 5.17140625 2.48046875 5.1953125 C0 5 0 5 -3 3 C-2.01 2.01 -1.02 1.02 0 0 Z " fill="#863B3E" transform="translate(134,150)"/>
<path d="M0 0 C2.9297008 2.82506863 5.50174717 5.78796065 8 9 C7.67 9.66 7.34 10.32 7 11 C5.62437146 9.71034824 4.29233607 8.37310707 3 7 C3 6.34 3 5.68 3 5 C2.01 4.67 1.02 4.34 0 4 C0 2.68 0 1.36 0 0 Z " fill="#CEB4B4" transform="translate(22,144)"/>
<path d="M0 0 C0.33 0 0.66 0 1 0 C1.1875 2.375 1.1875 2.375 1 5 C-2 7 -2 7 -6 7 C-6 6.34 -6 5.68 -6 5 C-4.35 4.67 -2.7 4.34 -1 4 C-0.67 2.68 -0.34 1.36 0 0 Z " fill="#F6DFE0" transform="translate(54,143)"/>
<path d="M0 0 C0.99 0.33 1.98 0.66 3 1 C2.0479279 2.00596297 1.08812654 3.00461563 0.125 4 C-0.40867187 4.556875 -0.94234375 5.11375 -1.4921875 5.6875 C-3 7 -3 7 -5 7 C-5 6.01 -5 5.02 -5 4 C-2.6875 1.75 -2.6875 1.75 0 0 Z " fill="#612123" transform="translate(63,91)"/>
<path d="M0 0 C0.33 0 0.66 0 1 0 C2.23076923 5.41538462 2.23076923 5.41538462 1.0625 8.375 C0.711875 8.91125 0.36125 9.4475 0 10 C-0.66 10 -1.32 10 -2 10 C-1.54177532 6.53058454 -1.10868317 3.32604951 0 0 Z " fill="#6C2224" transform="translate(12,69)"/>
<path d="M0 0 C0.58265625 0.21527344 1.1653125 0.43054688 1.765625 0.65234375 C0.50322788 1.5189299 -0.76965001 2.37026434 -2.046875 3.21484375 C-3.10841797 3.92833984 -3.10841797 3.92833984 -4.19140625 4.65625 C-6.234375 5.65234375 -6.234375 5.65234375 -9.234375 4.65234375 C-8.16330383 3.78285058 -7.07691556 2.9322017 -5.984375 2.08984375 C-5.38109375 1.61417969 -4.7778125 1.13851562 -4.15625 0.6484375 C-2.234375 -0.34765625 -2.234375 -0.34765625 0 0 Z " fill="#66302F" transform="translate(128.234375,72.34765625)"/>
<path d="M0 0 C0 0.99 0 1.98 0 3 C-2.81534937 5.65894107 -5.12793601 7.42636089 -9 8 C-8.67 7.01 -8.34 6.02 -8 5 C-7.401875 4.855625 -6.80375 4.71125 -6.1875 4.5625 C-3.2629977 3.81048512 -1.98969345 2.20287489 0 0 Z " fill="#F0EEED" transform="translate(155,163)"/>
<path d="M0 0 C0.33 0.66 0.66 1.32 1 2 C3.97 2 6.94 2 10 2 C10 2.33 10 2.66 10 3 C7.03 3 4.06 3 1 3 C1 3.66 1 4.32 1 5 C0.34 5 -0.32 5 -1 5 C-1 4.34 -1 3.68 -1 3 C-1.66 2.67 -2.32 2.34 -3 2 C-2.01 1.34 -1.02 0.68 0 0 Z " fill="#5F0D0E" transform="translate(91,138)"/>
<path d="M0 0 C1.0326802 2.78823655 1.04509293 3.8677274 0.0625 6.75 C-0.288125 7.4925 -0.63875 8.235 -1 9 C-1.66 8.67 -2.32 8.34 -3 8 C-2.25 2.25 -2.25 2.25 0 0 Z " fill="#F3D6D5" transform="translate(92,115)"/>
<path d="M0 0 C2.475 0.99 2.475 0.99 5 2 C3.68 3.32 2.36 4.64 1 6 C1 5.34 1 4.68 1 4 C0.34 4 -0.32 4 -1 4 C-0.67 2.68 -0.34 1.36 0 0 Z " fill="#6B2427" transform="translate(88,112)"/>
<path d="M0 0 C0.33 0 0.66 0 1 0 C0.67 2.31 0.34 4.62 0 7 C-1.32 7.33 -2.64 7.66 -4 8 C-2.68 5.36 -1.36 2.72 0 0 Z " fill="#601518" transform="translate(21,50)"/>
<path d="M0 0 C3.3 1.65 6.6 3.3 10 5 C5.23374833 6.19156292 4.12120649 5.3415946 0 3 C0 2.01 0 1.02 0 0 Z " fill="#62191B" transform="translate(134,17)"/>
<path d="M0 0 C-0.99 0.66 -1.98 1.32 -3 2 C-4.33790641 2.99387334 -5.67218122 3.9926892 -7 5 C-7.66 4.67 -8.32 4.34 -9 4 C-8.67 3.01 -8.34 2.02 -8 1 C-5.29120665 -0.35439668 -2.99066732 -0.06501451 0 0 Z " fill="#F4DAD8" transform="translate(67,141)"/>
<path d="M0 0 C1.2065625 0.0309375 1.2065625 0.0309375 2.4375 0.0625 C2.4375 0.7225 2.4375 1.3825 2.4375 2.0625 C-0.77701269 3.66975635 -3.99862536 3.11998185 -7.5625 3.0625 C-6.923125 2.753125 -6.28375 2.44375 -5.625 2.125 C-1.57454819 0.03840361 -1.57454819 0.03840361 0 0 Z " fill="#F6E6DF" transform="translate(138.5625,111.9375)"/>
<path d="M0 0 C0.33 1.32 0.66 2.64 1 4 C0.01 4 -0.98 4 -2 4 C-2 4.66 -2 5.32 -2 6 C-3.32 5.34 -4.64 4.68 -6 4 C-5.34 4 -4.68 4 -4 4 C-3.67 3.01 -3.34 2.02 -3 1 C-2.01 0.67 -1.02 0.34 0 0 Z " fill="#712929" transform="translate(143,105)"/>
<path d="M0 0 C0.66 0 1.32 0 2 0 C2.33 2.64 2.66 5.28 3 8 C1.68 7.67 0.36 7.34 -1 7 C-0.34 7 0.32 7 1 7 C0.67 4.69 0.34 2.38 0 0 Z " fill="#671A1F" transform="translate(143,100)"/>
<path d="M0 0 C-3.75 3 -3.75 3 -6 3 C-6 2.34 -6 1.68 -6 1 C-6.99 1 -7.98 1 -9 1 C-8 -1 -8 -1 -6.1875 -1.75 C-3.50171361 -2.05694702 -2.2747813 -1.38111722 0 0 Z " fill="#EEDBD9" transform="translate(127,78)"/>
<path d="M0 0 C0.99 0 1.98 0 3 0 C3 1.98 3 3.96 3 6 C2.01 6 1.02 6 0 6 C0 4.02 0 2.04 0 0 Z " fill="#620101" transform="translate(141,144)"/>
<path d="M0 0 C1.32 0.33 2.64 0.66 4 1 C3.67 2.32 3.34 3.64 3 5 C2.01 5 1.02 5 0 5 C0 3.35 0 1.7 0 0 Z " fill="#682224" transform="translate(48,143)"/>
<path d="M0 0 C1.98 0.495 1.98 0.495 4 1 C4 3.97 4 6.94 4 10 C3.67 10 3.34 10 3 10 C2.71125 8.88625 2.4225 7.7725 2.125 6.625 C1.30758671 2.99708908 1.30758671 2.99708908 -1 1 C-0.67 0.67 -0.34 0.34 0 0 Z " fill="#742A2B" transform="translate(145,140)"/>
<path d="M0 0 C-4.95 2.475 -4.95 2.475 -10 5 C-10.66 4.34 -11.32 3.68 -12 3 C-10.5682384 2.30062798 -9.12932968 1.61587282 -7.6875 0.9375 C-6.48673828 0.36322266 -6.48673828 0.36322266 -5.26171875 -0.22265625 C-3 -1 -3 -1 0 0 Z " fill="#693C3B" transform="translate(140,68)"/>
<path d="M0 0 C0.99 0.33 1.98 0.66 3 1 C1.69593116 3.01920337 0.36176581 5.01924973 -1 7 C-1.33 7 -1.66 7 -2 7 C-2 5.35 -2 3.7 -2 2 C-1.34 2 -0.68 2 0 2 C0 1.34 0 0.68 0 0 Z " fill="#601316" transform="translate(166,144)"/>
<path d="M0 0 C0.66 0 1.32 0 2 0 C2.185625 1.2065625 2.185625 1.2065625 2.375 2.4375 C2.58125 3.283125 2.7875 4.12875 3 5 C3.66 5.33 4.32 5.66 5 6 C3.68 6.33 2.36 6.66 1 7 C0.67 4.69 0.34 2.38 0 0 Z " fill="#EFDAD8" transform="translate(40,116)"/>
<path d="M0 0 C0.5534764 2.07553648 1 3.84365964 1 6 C-0.65 6.66 -2.3 7.32 -4 8 C-4.66 7.34 -5.32 6.68 -6 6 C-5.195625 5.566875 -4.39125 5.13375 -3.5625 4.6875 C-0.72153646 3.19525998 -0.72153646 3.19525998 0 0 Z " fill="#713335" transform="translate(82,76)"/>
<path d="M0 0 C0.99 0.33 1.98 0.66 3 1 C1.1875 3 1.1875 3 -1 5 C-1.99 5 -2.98 5 -4 5 C-3 2 -3 2 0 0 Z " fill="#5D1A1B" transform="translate(121,62)"/>
</svg>
